<svg width="252" height="250" viewBox="0 0 252 250" fill="none" xmlns="http://www.w3.org/2000/svg">
<g clip-path="url(#clip0_6_20)">
<rect width="251.701" height="250" />
<path d="M107.184 118.52V72.1135C107.184 70.9495 108.45 70.2271 109.452 70.8193L122.886 78.7578C123.394 79.0577 124.03 79.0332 124.513 78.6951L181.485 38.8146C182.481 38.1171 183.85 38.8299 183.85 40.0461V170.919C183.85 171.409 183.611 171.869 183.209 172.15L124.593 213.181C124.07 213.548 123.372 213.543 122.854 213.17L101.436 197.777C100.582 197.163 100.607 195.883 101.484 195.303L152.36 161.624C152.78 161.346 153.033 160.875 153.033 160.371V144.419C153.033 143.224 151.705 142.507 150.706 143.162L109.511 170.175C108.512 170.831 107.184 170.113 107.184 168.918V140.182C107.184 139.681 107.433 139.214 107.848 138.934L152.369 109.011C152.784 108.732 153.033 108.264 153.033 107.763V93.3465C153.033 92.1433 151.69 91.4277 150.692 92.0989L109.526 119.768C108.527 120.439 107.184 119.723 107.184 118.52Z" fill="white"/>
<path d="M99.0119 57.7569L71.2014 38.7644C70.2036 38.083 68.8503 38.7976 68.8503 40.0058V170.876C68.8503 171.39 69.1129 171.868 69.5465 172.144L92.8544 186.977C93.3431 187.288 93.967 187.29 94.4582 186.983L98.9608 184.169C99.4003 183.894 99.6673 183.413 99.6673 182.894V58.9983C99.6673 58.5017 99.422 58.0371 99.0119 57.7569Z" fill="white"/>
</g>
<defs>
<clipPath id="clip0_6_20">
<rect width="251.701" height="250" fill="white"/>
</clipPath>
</defs>
</svg>
