<svg width="252" height="251" viewBox="0 0 252 251" fill="none" xmlns="http://www.w3.org/2000/svg">
<g clip-path="url(#clip0_6_17)">
<rect x="0.149658" y="0.5" width="251.701" height="250" />
<path d="M107.333 119.02V72.6135C107.333 71.4495 108.599 70.7271 109.601 71.3193L123.036 79.2578C123.543 79.5577 124.179 79.5332 124.663 79.1951L181.635 39.3146C182.631 38.6171 184 39.3299 184 40.5461V171.419C184 171.909 183.761 172.369 183.359 172.65L124.743 213.681C124.22 214.048 123.522 214.043 123.003 213.67L101.586 198.277C100.732 197.663 100.756 196.383 101.634 195.803L152.51 162.124C152.93 161.846 153.183 161.375 153.183 160.871V144.919C153.183 143.724 151.855 143.007 150.855 143.662L109.661 170.675C108.661 171.331 107.333 170.613 107.333 169.418V140.682C107.333 140.181 107.583 139.714 107.998 139.434L152.518 109.511C152.934 109.232 153.183 108.764 153.183 108.263V93.8465C153.183 92.6433 151.84 91.9277 150.841 92.5989L109.675 120.268C108.677 120.939 107.333 120.223 107.333 119.02Z" fill="url(#paint0_linear_6_17)"/>
<path d="M99.1615 58.2569L71.3511 39.2644C70.3533 38.583 69 39.2976 69 40.5058V171.376C69 171.89 69.2626 172.368 69.6962 172.644L93.0041 187.477C93.4928 187.788 94.1167 187.79 94.6079 187.483L99.1105 184.669C99.55 184.394 99.817 183.913 99.817 183.394V59.4983C99.817 59.0017 99.5717 58.5371 99.1615 58.2569Z" fill="url(#paint1_linear_6_17)"/>
</g>
<defs>
<linearGradient id="paint0_linear_6_17" x1="69" y1="24.5" x2="157" y2="126" gradientUnits="userSpaceOnUse">
<stop stop-color="#CCFF00"/>
<stop offset="1" stop-color="#88FF00"/>
</linearGradient>
<linearGradient id="paint1_linear_6_17" x1="69" y1="24.5" x2="157" y2="126" gradientUnits="userSpaceOnUse">
<stop stop-color="#CCFF00"/>
<stop offset="1" stop-color="#88FF00"/>
</linearGradient>
<clipPath id="clip0_6_17">
<rect width="251.701" height="250" fill="white" transform="translate(0.149658 0.5)"/>
</clipPath>
</defs>
</svg>
